<svg width="24" height="25" viewBox="0 0 24 25" fill="none" xmlns="http://www.w3.org/2000/svg">
<path d="M12.6609 3.01814L12.6309 3.08814L9.73094 9.81814H6.88094C6.20094 9.81814 5.55094 9.95814 4.96094 10.2081L6.71094 6.02814L6.75094 5.92814L6.82094 5.76814C6.84094 5.70814 6.86094 5.64814 6.89094 5.59814C8.20094 2.56814 9.68094 1.87814 12.6609 3.01814Z" stroke="white" stroke-width="1.5" stroke-linecap="round" stroke-linejoin="round"/>
<path d="M18.0466 10.0182C17.5966 9.87819 17.1166 9.81819 16.6366 9.81819H9.72656L12.6266 3.08819L12.6566 3.01819C12.8066 3.06819 12.9466 3.13819 13.0966 3.19819L15.3066 4.12819C16.5366 4.63819 17.3966 5.16819 17.9166 5.80819C18.0166 5.92819 18.0966 6.03819 18.1666 6.16819C18.2566 6.30819 18.3266 6.44819 18.3666 6.59819C18.4066 6.68819 18.4366 6.77819 18.4566 6.85819C18.7266 7.69819 18.5666 8.72819 18.0466 10.0182Z" stroke="white" stroke-width="1.5" stroke-linecap="round" stroke-linejoin="round"/>
<path d="M21.5256 14.6984V16.6484C21.5256 16.8484 21.5156 17.0484 21.5056 17.2484C21.3156 20.7384 19.3656 22.4984 15.6656 22.4984H7.86563C7.62563 22.4984 7.38562 22.4784 7.15562 22.4484C3.97562 22.2384 2.27562 20.5384 2.06562 17.3584C2.03562 17.1284 2.01562 16.8884 2.01562 16.6484V14.6984C2.01562 12.6884 3.23563 10.9584 4.97563 10.2084C5.57563 9.95836 6.21563 9.81836 6.89563 9.81836H16.6556C17.1456 9.81836 17.6256 9.88836 18.0656 10.0184C20.0556 10.6284 21.5256 12.4884 21.5256 14.6984Z" stroke="white" stroke-width="1.5" stroke-linecap="round" stroke-linejoin="round"/>
<path d="M6.71 6.02808L4.96 10.2081C3.22 10.9581 2 12.6881 2 14.6981V11.7681C2 8.92808 4.02 6.55808 6.71 6.02808Z" stroke="white" stroke-width="1.5" stroke-linecap="round" stroke-linejoin="round"/>
<path d="M21.5225 11.7677V14.6977C21.5225 12.4977 20.0625 10.6277 18.0625 10.0277C18.5825 8.72766 18.7325 7.70766 18.4825 6.85766C18.4625 6.76766 18.4325 6.67766 18.3925 6.59766C20.2525 7.55766 21.5225 9.52766 21.5225 11.7677Z" stroke="white" stroke-width="1.5" stroke-linecap="round" stroke-linejoin="round"/>
</svg>
